<!DOCTYPE svg PUBLIC "-//W3C//DTD SVG 20010904//EN" "http://www.w3.org/TR/2001/REC-SVG-20010904/DTD/svg10.dtd">
<svg version="1.0" xmlns="http://www.w3.org/2000/svg" width="1200px" height="1200px" viewBox="0 0 12000 12000" preserveAspectRatio="xMidYMid meet">
<g id="layer101" fill="#000000" stroke="none">
 <path d="M5655 11970 c-355 -26 -572 -53 -820 -101 -155 -31 -410 -93 -413 -101 -2 -4 -11 -8 -20 -8 -8 0 -29 -4 -46 -10 -17 -5 -65 -19 -106 -31 -210 -61 -508 -170 -700 -256 -152 -69 -235 -108 -240 -113 -3 -4 -53 -32 -112 -63 -59 -31 -126 -68 -150 -81 -24 -13 -64 -35 -89 -48 -43 -24 -96 -57 -229 -139 -30 -19 -61 -39 -68 -46 -6 -6 -21 -15 -32 -18 -11 -3 -20 -10 -20 -15 0 -5 -47 -40 -104 -78 -89 -60 -196 -142 -392 -302 -203 -166 -532 -496 -707 -711 -23 -28 -61 -74 -85 -103 -55 -66 -173 -222 -198 -261 -10 -16 -21 -32 -25 -35 -9 -8 -129 -189 -129 -195 0 -3 -18 -33 -40 -65 -22 -32 -40 -64 -40 -69 0 -6 -4 -11 -10 -11 -5 0 -10 -6 -10 -14 0 -7 -7 -19 -15 -26 -8 -6 -42 -62 -75 -123 -34 -62 -68 -123 -75 -137 -37 -65 -195 -393 -195 -406 0 -3 -9 -24 -19 -48 -11 -23 -29 -67 -41 -97 -12 -30 -27 -63 -34 -74 -7 -11 -22 -49 -35 -85 -12 -36 -26 -74 -30 -85 -5 -11 -23 -67 -41 -125 -18 -58 -40 -125 -48 -150 -15 -47 -28 -92 -42 -150 -5 -19 -18 -71 -29 -115 -12 -44 -25 -98 -30 -120 -17 -80 -41 -201 -52 -260 -6 -33 -14 -80 -19 -105 -14 -75 -28 -180 -39 -285 -6 -55 -15 -144 -21 -197 -5 -53 -10 -142 -10 -197 0 -61 -4 -101 -10 -101 -6 0 -10 -75 -10 -205 0 -130 4 -205 10 -205 6 0 10 -40 10 -101 0 -93 4 -139 31 -389 15 -137 43 -328 61 -415 5 -27 14 -68 18 -90 5 -22 14 -67 21 -100 7 -33 23 -103 37 -155 13 -52 28 -111 32 -130 4 -19 18 -66 30 -105 12 -38 25 -83 30 -100 19 -71 104 -315 129 -370 16 -33 39 -87 51 -120 55 -142 184 -417 268 -570 64 -117 126 -220 134 -223 5 -2 8 -8 8 -12 0 -9 70 -124 90 -147 5 -7 10 -15 10 -18 0 -7 101 -157 111 -165 4 -3 21 -30 40 -60 38 -63 125 -179 146 -197 9 -6 25 -25 37 -41 154 -211 589 -663 811 -842 66 -53 131 -108 145 -122 31 -30 200 -158 209 -158 4 0 16 -8 27 -18 10 -10 62 -47 114 -82 52 -36 100 -68 105 -73 19 -14 180 -114 317 -196 130 -77 370 -203 468 -245 25 -11 68 -29 95 -42 123 -55 379 -153 485 -185 19 -6 44 -14 55 -19 11 -4 40 -14 65 -21 25 -7 47 -16 50 -19 3 -3 25 -12 50 -19 25 -7 56 -17 70 -21 61 -19 323 -83 380 -93 14 -3 61 -12 105 -21 261 -53 520 -85 860 -106 467 -29 1029 15 1540 121 100 20 397 96 445 113 25 9 55 16 67 16 12 0 23 3 25 8 2 4 48 22 103 40 124 42 406 146 462 172 24 11 45 20 47 20 12 0 386 179 396 190 3 3 48 27 100 54 52 27 97 53 100 56 3 4 46 32 95 61 50 29 92 57 93 61 2 5 8 8 13 8 6 0 37 18 69 40 32 22 62 40 65 40 6 0 65 40 75 50 3 3 19 14 35 24 47 30 293 215 300 226 3 5 61 53 128 107 132 105 531 499 668 659 119 139 232 284 319 411 41 59 79 113 85 119 18 19 44 57 105 154 33 52 63 100 67 105 4 6 15 23 23 40 8 16 51 93 94 170 76 135 170 321 210 415 11 25 22 47 25 50 4 3 20 37 35 75 16 39 37 89 48 112 10 23 18 45 18 48 0 4 6 21 14 38 23 53 53 137 86 242 18 55 41 125 51 155 29 87 84 298 118 455 12 55 26 118 31 140 35 160 77 475 100 752 13 156 13 683 0 832 -19 220 -39 394 -61 524 -28 174 -64 363 -79 417 -12 44 -39 154 -50 200 -4 19 -22 80 -38 135 -17 55 -38 125 -47 155 -31 105 -58 180 -83 240 -6 14 -27 68 -47 120 -48 127 -35 98 -193 420 -77 157 -158 315 -181 352 -22 37 -41 72 -41 78 0 5 -4 10 -10 10 -5 0 -10 4 -10 10 0 8 -67 120 -88 145 -4 6 -22 35 -39 65 -18 30 -40 64 -51 76 -11 11 -25 30 -31 43 -7 12 -19 30 -26 39 -8 9 -42 55 -76 102 -35 47 -66 87 -69 90 -3 3 -21 25 -40 50 -19 25 -37 47 -40 50 -3 3 -21 25 -40 50 -19 25 -37 47 -40 50 -3 3 -21 25 -40 50 -83 109 -540 565 -650 650 -25 19 -52 42 -60 50 -8 9 -35 31 -60 50 -25 19 -58 47 -75 62 -16 15 -36 28 -42 28 -7 0 -13 4 -13 8 0 4 -13 16 -30 25 -16 10 -35 23 -42 30 -7 7 -51 41 -98 75 -47 35 -98 74 -115 88 -32 26 -122 84 -131 84 -3 0 -24 13 -47 29 -87 59 -277 169 -407 235 -74 38 -142 74 -150 81 -8 6 -36 21 -63 33 -26 12 -66 31 -90 41 -23 11 -87 38 -142 61 -55 23 -113 47 -130 55 -16 7 -41 16 -55 20 -14 4 -30 11 -35 15 -10 8 -286 101 -420 141 -38 12 -80 25 -93 30 -13 5 -34 9 -47 9 -14 0 -25 4 -25 9 0 5 -12 11 -27 14 -16 3 -46 10 -68 16 -38 9 -88 21 -180 42 -95 22 -314 60 -455 80 -327 46 -870 69 -1145 49z"/>
 </g>
<g id="layer102" fill="#ffffff" stroke="none">
 <path d="M5658 10019 c-83 -12 -318 -65 -443 -101 -324 -91 -858 -303 -1085 -431 -96 -54 -402 -275 -471 -340 -157 -149 -288 -416 -424 -862 -70 -232 -88 -334 -88 -500 0 -160 3 -178 68 -355 16 -44 30 -105 33 -147 5 -72 5 -72 -47 -125 -74 -79 -94 -132 -94 -243 2 -166 99 -474 172 -539 12 -11 27 -40 35 -66 30 -102 119 -239 281 -432 126 -152 189 -210 314 -291 253 -166 505 -287 596 -287 100 0 248 83 362 204 155 162 235 323 263 531 6 44 19 107 30 140 30 97 46 199 80 495 34 303 26 450 -32 563 -50 100 -168 181 -258 180 -91 -1 -217 -110 -285 -247 -55 -108 -45 -190 23 -188 36 1 60 12 127 63 83 61 198 110 218 90 15 -15 -49 -581 -89 -781 -46 -230 -98 -371 -149 -404 -15 -10 -24 -23 -21 -31 8 -22 -21 -45 -109 -86 -161 -76 -278 -93 -427 -65 -157 31 -273 85 -370 175 -85 78 -146 158 -313 406 -70 105 -147 215 -172 245 -51 62 -84 129 -108 218 -22 86 -20 134 8 160 52 49 132 33 243 -49 65 -48 86 -55 118 -43 23 9 20 56 -6 90 -12 16 -61 70 -109 120 -94 98 -93 95 -104 229 -4 40 -16 91 -30 120 -34 73 -49 189 -49 370 0 150 2 168 32 278 54 195 135 385 255 599 42 73 84 153 95 178 23 52 102 131 217 217 384 289 767 459 1197 532 341 59 645 64 913 17 412 -73 689 -162 815 -264 153 -123 484 -462 575 -589 22 -31 75 -104 119 -162 86 -117 126 -191 215 -398 182 -427 229 -774 147 -1095 -27 -108 -73 -228 -118 -308 -48 -87 -227 -359 -279 -425 -25 -33 -53 -76 -61 -95 -9 -19 -46 -75 -83 -125 -37 -49 -76 -108 -86 -130 -11 -23 -55 -83 -99 -135 -44 -52 -97 -129 -118 -170 -30 -59 -45 -78 -72 -90 -26 -12 -39 -29 -61 -77 -16 -35 -33 -63 -40 -63 -15 0 -8 54 43 340 55 314 67 427 68 645 0 392 -64 746 -188 1035 -98 231 -190 333 -470 525 -114 78 -114 78 -430 83 -307 4 -318 4 -342 -16 -21 -17 -22 -22 -11 -36 7 -9 28 -16 46 -16 96 0 318 -101 418 -190 38 -33 89 -71 115 -85 69 -36 81 -49 176 -190 122 -179 165 -271 219 -460 44 -155 50 -236 50 -730 0 -489 -9 -652 -44 -775 -59 -215 -258 -640 -405 -870 -224 -349 -391 -684 -433 -870 -22 -95 -101 -560 -112 -655 -26 -231 28 -632 135 -1006 60 -207 126 -390 185 -513 82 -171 374 -591 475 -684 90 -83 87 -23 -12 228 -133 336 -291 783 -333 940 -34 132 -51 317 -51 585 -1 411 32 530 248 892 110 183 272 425 347 518 114 141 317 366 573 635 222 234 435 485 509 600 26 41 89 134 140 205 237 335 421 716 547 1130 80 266 92 337 92 560 0 149 -4 217 -16 265 -37 149 -119 434 -144 497 -96 244 -320 613 -531 878 -111 139 -337 372 -468 482 -237 198 -551 372 -870 478 -224 75 -598 120 -777 94z"/>
 </g>

</svg>